<mxfile host="app.diagrams.net" modified="2024-05-24T06:46:05.326Z" agent="Mozilla/5.0 (Windows NT 10.0; Win64; x64) AppleWebKit/537.36 (KHTML, like Gecko) Chrome/124.0.0.0 Safari/537.36" etag="ldAZrzXOgOfl9L9xZQlN" version="24.4.7" type="device">
  <diagram name="PÃ¡gina-1" id="lrYfwpMtqcm7wSCf5W27">
    <mxGraphModel dx="1674" dy="780" grid="1" gridSize="10" guides="1" tooltips="1" connect="1" arrows="1" fold="1" page="1" pageScale="1" pageWidth="827" pageHeight="1169" math="0" shadow="0">
      <root>
        <mxCell id="0" />
        <mxCell id="1" parent="0" />
        <mxCell id="KFZX_D6Zt-1Tf5NcaSej-10" value="" style="ellipse;whiteSpace=wrap;html=1;aspect=fixed;" vertex="1" parent="1">
          <mxGeometry x="407.5" y="687.5" width="55" height="55" as="geometry" />
        </mxCell>
        <mxCell id="ZKKLgKjjBWdZeA70Go1p-2" value="" style="ellipse;whiteSpace=wrap;html=1;aspect=fixed;fillColor=#000000;" parent="1" vertex="1">
          <mxGeometry x="410" y="20" width="50" height="50" as="geometry" />
        </mxCell>
        <mxCell id="ZKKLgKjjBWdZeA70Go1p-3" value="Recibir solicitud de venta de producto" style="rounded=1;whiteSpace=wrap;html=1;" parent="1" vertex="1">
          <mxGeometry x="375" y="140" width="120" height="60" as="geometry" />
        </mxCell>
        <mxCell id="ZKKLgKjjBWdZeA70Go1p-4" value="" style="endArrow=classic;html=1;rounded=0;exitX=0.5;exitY=1;exitDx=0;exitDy=0;entryX=0.5;entryY=0;entryDx=0;entryDy=0;" parent="1" source="ZKKLgKjjBWdZeA70Go1p-2" target="ZKKLgKjjBWdZeA70Go1p-3" edge="1">
          <mxGeometry width="50" height="50" relative="1" as="geometry">
            <mxPoint x="350" y="430" as="sourcePoint" />
            <mxPoint x="400" y="380" as="targetPoint" />
          </mxGeometry>
        </mxCell>
        <mxCell id="ZKKLgKjjBWdZeA70Go1p-6" value="" style="endArrow=classic;html=1;rounded=0;exitX=0.75;exitY=1;exitDx=0;exitDy=0;entryX=0.5;entryY=0;entryDx=0;entryDy=0;" parent="1" target="ZKKLgKjjBWdZeA70Go1p-10" edge="1" source="KFZX_D6Zt-1Tf5NcaSej-3">
          <mxGeometry width="50" height="50" relative="1" as="geometry">
            <mxPoint x="431.25" y="305" as="sourcePoint" />
            <mxPoint x="570" y="420" as="targetPoint" />
          </mxGeometry>
        </mxCell>
        <mxCell id="ZKKLgKjjBWdZeA70Go1p-7" value="" style="endArrow=classic;html=1;rounded=0;entryX=0.45;entryY=0;entryDx=0;entryDy=0;entryPerimeter=0;exitX=0.25;exitY=1;exitDx=0;exitDy=0;" parent="1" target="ZKKLgKjjBWdZeA70Go1p-15" edge="1" source="KFZX_D6Zt-1Tf5NcaSej-3">
          <mxGeometry width="50" height="50" relative="1" as="geometry">
            <mxPoint x="399.00390625" y="305.234375" as="sourcePoint" />
            <mxPoint x="280" y="430" as="targetPoint" />
          </mxGeometry>
        </mxCell>
        <mxCell id="ZKKLgKjjBWdZeA70Go1p-8" value="[ Datos ingresados correctamente y producto en stock ]" style="text;html=1;align=center;verticalAlign=middle;whiteSpace=wrap;rounded=0;" parent="1" vertex="1">
          <mxGeometry x="120" y="295" width="190" height="30" as="geometry" />
        </mxCell>
        <mxCell id="ZKKLgKjjBWdZeA70Go1p-9" value="[ Datos introducidos incorrectamente y/o producto fuera de stock ]" style="text;html=1;align=center;verticalAlign=middle;whiteSpace=wrap;rounded=0;" parent="1" vertex="1">
          <mxGeometry x="550" y="260" width="220" height="100" as="geometry" />
        </mxCell>
        <mxCell id="ZKKLgKjjBWdZeA70Go1p-10" value="Orden canceleda" style="rounded=1;whiteSpace=wrap;html=1;" parent="1" vertex="1">
          <mxGeometry x="510" y="360" width="120" height="60" as="geometry" />
        </mxCell>
        <mxCell id="ZKKLgKjjBWdZeA70Go1p-12" value="" style="ellipse;whiteSpace=wrap;html=1;aspect=fixed;strokeColor=#000000;fillColor=#000000;" parent="1" vertex="1">
          <mxGeometry x="415" y="695" width="40" height="40" as="geometry" />
        </mxCell>
        <mxCell id="ZKKLgKjjBWdZeA70Go1p-14" value="" style="endArrow=classic;html=1;rounded=0;exitX=0.5;exitY=1;exitDx=0;exitDy=0;entryX=0.903;entryY=0.2;entryDx=0;entryDy=0;entryPerimeter=0;" parent="1" source="ZKKLgKjjBWdZeA70Go1p-10" target="KFZX_D6Zt-1Tf5NcaSej-1" edge="1">
          <mxGeometry width="50" height="50" relative="1" as="geometry">
            <mxPoint x="350" y="430" as="sourcePoint" />
            <mxPoint x="570" y="610" as="targetPoint" />
          </mxGeometry>
        </mxCell>
        <mxCell id="ZKKLgKjjBWdZeA70Go1p-15" value="Orden procesada" style="rounded=1;whiteSpace=wrap;html=1;" parent="1" vertex="1">
          <mxGeometry x="220" y="360" width="120" height="60" as="geometry" />
        </mxCell>
        <mxCell id="ZKKLgKjjBWdZeA70Go1p-16" value="" style="endArrow=classic;html=1;rounded=0;exitX=0.5;exitY=1;exitDx=0;exitDy=0;entryX=0.5;entryY=0;entryDx=0;entryDy=0;" parent="1" source="ZKKLgKjjBWdZeA70Go1p-15" target="ZKKLgKjjBWdZeA70Go1p-17" edge="1">
          <mxGeometry width="50" height="50" relative="1" as="geometry">
            <mxPoint x="350" y="430" as="sourcePoint" />
            <mxPoint x="295" y="540" as="targetPoint" />
          </mxGeometry>
        </mxCell>
        <mxCell id="ZKKLgKjjBWdZeA70Go1p-17" value="Producto entregado" style="rounded=1;whiteSpace=wrap;html=1;" parent="1" vertex="1">
          <mxGeometry x="220" y="476.25" width="120" height="60" as="geometry" />
        </mxCell>
        <mxCell id="ZKKLgKjjBWdZeA70Go1p-21" value="" style="endArrow=classic;html=1;rounded=0;exitX=0.5;exitY=1;exitDx=0;exitDy=0;entryX=0.033;entryY=0;entryDx=0;entryDy=0;entryPerimeter=0;" parent="1" source="ZKKLgKjjBWdZeA70Go1p-17" edge="1" target="KFZX_D6Zt-1Tf5NcaSej-1">
          <mxGeometry width="50" height="50" relative="1" as="geometry">
            <mxPoint x="410" y="650" as="sourcePoint" />
            <mxPoint x="280" y="600" as="targetPoint" />
          </mxGeometry>
        </mxCell>
        <mxCell id="KFZX_D6Zt-1Tf5NcaSej-1" value="" style="whiteSpace=wrap;html=1;rounded=0;shadow=0;comic=0;labelBackgroundColor=none;strokeWidth=1;fillColor=#000000;fontFamily=Verdana;fontSize=12;align=center;rotation=0;" vertex="1" parent="1">
          <mxGeometry x="270" y="610" width="330" height="10" as="geometry" />
        </mxCell>
        <mxCell id="KFZX_D6Zt-1Tf5NcaSej-3" value="" style="whiteSpace=wrap;html=1;rounded=0;shadow=0;comic=0;labelBackgroundColor=none;strokeWidth=1;fillColor=#000000;fontFamily=Verdana;fontSize=12;align=center;rotation=0;" vertex="1" parent="1">
          <mxGeometry x="270" y="250" width="330" height="10" as="geometry" />
        </mxCell>
        <mxCell id="KFZX_D6Zt-1Tf5NcaSej-7" style="edgeStyle=orthogonalEdgeStyle;rounded=0;orthogonalLoop=1;jettySize=auto;html=1;exitX=0.75;exitY=1;exitDx=0;exitDy=0;entryX=0.75;entryY=0;entryDx=0;entryDy=0;" edge="1" parent="1" source="KFZX_D6Zt-1Tf5NcaSej-1" target="KFZX_D6Zt-1Tf5NcaSej-1">
          <mxGeometry relative="1" as="geometry" />
        </mxCell>
        <mxCell id="KFZX_D6Zt-1Tf5NcaSej-8" value="" style="endArrow=classic;html=1;rounded=0;exitX=0.5;exitY=1;exitDx=0;exitDy=0;entryX=0.5;entryY=0;entryDx=0;entryDy=0;" edge="1" parent="1" source="ZKKLgKjjBWdZeA70Go1p-3" target="KFZX_D6Zt-1Tf5NcaSej-3">
          <mxGeometry width="50" height="50" relative="1" as="geometry">
            <mxPoint x="610" y="200" as="sourcePoint" />
            <mxPoint x="660" y="150" as="targetPoint" />
          </mxGeometry>
        </mxCell>
        <mxCell id="KFZX_D6Zt-1Tf5NcaSej-9" value="" style="endArrow=classic;html=1;rounded=0;exitX=0.5;exitY=1;exitDx=0;exitDy=0;entryX=0.5;entryY=0;entryDx=0;entryDy=0;" edge="1" parent="1" source="KFZX_D6Zt-1Tf5NcaSej-1" target="KFZX_D6Zt-1Tf5NcaSej-10">
          <mxGeometry width="50" height="50" relative="1" as="geometry">
            <mxPoint x="270" y="710" as="sourcePoint" />
            <mxPoint x="435" y="680" as="targetPoint" />
          </mxGeometry>
        </mxCell>
      </root>
    </mxGraphModel>
  </diagram>
</mxfile>
